# xmcd
#
# Track frame offsets: 
#        150
#        16476
#        30872
#        53621
#        69956
#        84970
#        96044
#        114451
#        130592
#        147054
#        167055
#        182630
#        187198
#        199864
#        217082
#
# Disc length: 3134 seconds
#
# Revision: 0
# Processed by: cddbd v1.5.2PL0 Copyright (c) Steve Scherf et al.
# Submitted via: ExactAudioCopyFreeDBPlugin 1.0
#
DISCID=c30c3c0f
DTITLE=Railbenders - Rock 'N' Rail New Year's Eve 2008
DYEAR=2009
DGENRE=Country
TTITLE0=I-70 Westbound
TTITLE1=Another Tomorrow
TTITLE2=Payphone
TTITLE3=Big Diesel
TTITLE4=Like A Wheel
TTITLE5=I Drive A Truck
TTITLE6=Justin O. Picker
TTITLE7=Minus One
TTITLE8=Drop Me Off At The Honky Tonk
TTITLE9=Drinkin' Buddies
TTITLE10=The Dope Smoking Song
TTITLE11=Happy New Year
TTITLE12=Midnight Train
TTITLE13=There Was A Time
TTITLE14=Whiskey Rain
EXTD=
EXTT0=
EXTT1=
EXTT2=
EXTT3=
EXTT4=
EXTT5=
EXTT6=
EXTT7=
EXTT8=
EXTT9=
EXTT10=
EXTT11=
EXTT12=
EXTT13=
EXTT14=
PLAYORDER=
